<!DOCTYPE svg PUBLIC "-//W3C//DTD SVG 20010904//EN" "http://www.w3.org/TR/2001/REC-SVG-20010904/DTD/svg10.dtd">
<svg version="1.0" xmlns="http://www.w3.org/2000/svg" width="500px" height="500px" viewBox="0 0 5000 5000" preserveAspectRatio="xMidYMid meet">
<g id="layer1" fill="#000000" stroke="none">
 <path d="M2588 2806 l-823 -1004 -3 846 c-2 915 -1 934 51 991 44 48 113 71 215 71 l92 0 0 30 0 30 -440 0 -440 0 0 -29 0 -29 104 -4 c94 -3 108 -6 152 -33 34 -21 55 -45 73 -80 l26 -49 3 -974 2 -973 -61 -65 c-108 -111 -234 -173 -356 -174 l-63 0 0 -40 0 -40 328 1 327 0 740 910 c407 501 752 925 767 942 l28 32 -3 -830 -2 -830 -25 -50 c-42 -84 -108 -115 -247 -115 l-83 0 0 -30 0 -30 440 0 440 0 0 29 0 29 -104 4 c-94 3 -108 6 -152 33 -34 21 -55 45 -73 80 l-26 49 -3 1153 -2 1153 -29 0 c-26 0 -107 -95 -853 -1004z"/>
 </g>
<g id="layer2" fill="#fefefe" stroke="none">
 <path d="M0 2500 l0 -2500 2500 0 2500 0 0 2500 0 2500 -2500 0 -2500 0 0 -2500z m3472 173 c3 -910 6 -1146 17 -1178 34 -103 103 -145 247 -153 l94 -5 0 -28 0 -29 -440 0 -440 0 0 29 0 28 93 5 c145 8 212 47 244 143 16 45 18 130 21 860 2 572 0 807 -8 799 -6 -6 -349 -426 -763 -935 l-753 -924 -337 -3 -337 -2 0 40 c0 40 0 40 39 40 131 0 261 58 373 167 l79 77 -3 956 c-3 756 -6 963 -17 995 -34 103 -103 145 -247 153 l-94 5 0 28 0 29 440 0 440 0 0 -30 0 -30 -73 0 c-124 0 -216 -40 -251 -109 -33 -63 -37 -178 -34 -988 l3 -801 819 999 c785 956 821 999 853 999 l32 0 3 -1137z"/>
 </g>

</svg>